<svg version="1.1" id="Layer_1" xmlns="http://www.w3.org/2000/svg" xmlns:xlink="http://www.w3.org/1999/xlink" x="0px" y="0px"
	 width="42.962px" height="16.705px" viewBox="0 0 42.962 16.705" style="enable-background:new 0 0 42.962 16.705;"
	 xml:space="preserve">
<g>
	<path d="M5.096,0.574c0.66,0,1.239,0.089,1.736,0.266C7.33,1.018,7.743,1.253,8.074,1.547c0.33,0.294,0.579,0.632,0.746,1.014
		c0.167,0.382,0.25,0.777,0.25,1.186c0,0.383-0.075,0.763-0.224,1.138C8.697,5.26,8.472,5.606,8.171,5.923s-0.68,0.59-1.138,0.821
		C6.575,6.975,6.037,7.137,5.42,7.23C5.408,7.516,5.398,7.778,5.391,8.017C5.387,8.119,5.383,8.22,5.379,8.322
		S5.372,8.517,5.37,8.601S5.366,8.758,5.364,8.82C5.362,8.883,5.361,8.926,5.361,8.95c-0.008,0.274-0.04,0.558-0.097,0.852
		c-0.057,0.294-0.139,0.582-0.247,0.862c-0.108,0.281-0.239,0.546-0.394,0.798c-0.155,0.251-0.335,0.471-0.542,0.66
		s-0.437,0.339-0.691,0.45c-0.255,0.111-0.533,0.167-0.835,0.167c-0.32,0-0.606-0.083-0.858-0.249
		c-0.252-0.166-0.473-0.39-0.662-0.67s-0.35-0.605-0.48-0.972s-0.237-0.75-0.319-1.15S0.093,8.895,0.056,8.489S0,7.701,0,7.342
		C0,6.725,0.057,6.13,0.17,5.556c0.113-0.574,0.276-1.111,0.487-1.613c0.211-0.501,0.468-0.959,0.769-1.373
		c0.301-0.414,0.641-0.769,1.019-1.066c0.378-0.296,0.789-0.526,1.233-0.688C4.122,0.655,4.595,0.574,5.096,0.574z M1.57,7.191
		c0,0.16,0.001,0.376,0.003,0.648C1.575,8.111,1.586,8.401,1.605,8.71s0.051,0.622,0.094,0.938c0.043,0.316,0.106,0.603,0.19,0.859
		c0.084,0.256,0.189,0.465,0.316,0.628c0.127,0.162,0.286,0.243,0.478,0.243c0.199,0,0.369-0.069,0.51-0.208
		c0.141-0.139,0.258-0.319,0.352-0.54c0.094-0.221,0.168-0.472,0.223-0.751C3.822,9.6,3.863,9.319,3.891,9.038
		s0.045-0.55,0.053-0.807s0.012-0.475,0.012-0.654V7.301C3.634,7.174,3.381,7.062,3.197,6.967C3.013,6.871,2.875,6.778,2.781,6.69
		C2.688,6.602,2.629,6.509,2.604,6.411C2.579,6.313,2.566,6.199,2.566,6.068c0-0.072,0.002-0.144,0.006-0.214
		s0.015-0.132,0.032-0.187C2.622,5.614,2.646,5.57,2.68,5.536c0.033-0.034,0.078-0.051,0.137-0.051c0.039,0,0.074,0.008,0.107,0.024
		c0.033,0.016,0.074,0.039,0.125,0.067c0.128,0.073,0.244,0.133,0.349,0.18C3.501,5.802,3.591,5.84,3.664,5.868
		C3.75,5.901,3.827,5.925,3.896,5.941c0-0.051,0.001-0.153,0.003-0.305c0.002-0.152,0.014-0.326,0.036-0.521
		c0.021-0.195,0.058-0.4,0.109-0.613C4.095,4.289,4.17,4.094,4.269,3.916s0.227-0.325,0.384-0.441C4.81,3.358,5.005,3.3,5.237,3.3
		c0.07,0,0.143,0.007,0.217,0.021s0.141,0.039,0.202,0.077c0.061,0.037,0.111,0.087,0.152,0.15C5.849,3.61,5.87,3.69,5.87,3.789
		c0,0.028-0.001,0.046-0.003,0.056S5.864,3.868,5.864,3.883L5.507,5.408L5.455,5.877c0.382-0.06,0.711-0.154,0.988-0.285
		c0.277-0.131,0.506-0.285,0.687-0.463c0.181-0.178,0.315-0.374,0.403-0.587C7.62,4.328,7.664,4.108,7.664,3.883
		c0-0.22-0.042-0.445-0.126-0.674S7.309,2.77,7.102,2.582C6.895,2.393,6.618,2.238,6.271,2.116C5.923,1.995,5.486,1.934,4.959,1.934
		c-0.396,0-0.754,0.075-1.075,0.226C3.563,2.311,3.277,2.515,3.027,2.773c-0.25,0.259-0.468,0.561-0.652,0.905
		C2.191,4.023,2.039,4.39,1.92,4.78C1.8,5.169,1.712,5.571,1.655,5.984C1.599,6.397,1.57,6.8,1.57,7.191z"/>
	<path d="M10.453,7.677c0.16-0.216,0.34-0.449,0.539-0.698c0.199-0.249,0.466-0.536,0.8-0.861c0.334-0.325,0.607-0.559,0.82-0.701
		c0.213-0.143,0.413-0.214,0.601-0.214c0.047,0,0.1,0.009,0.158,0.027s0.114,0.051,0.167,0.099s0.097,0.114,0.132,0.2
		c0.035,0.085,0.053,0.196,0.053,0.331c0,0.271-0.037,0.535-0.111,0.792c-0.074,0.256-0.215,0.568-0.422,0.935
		s-0.347,0.683-0.419,0.949s-0.108,0.545-0.108,0.836c0,0.159,0.023,0.287,0.07,0.382c0.047,0.095,0.107,0.143,0.182,0.143
		c0.094,0,0.193-0.02,0.299-0.059s0.211-0.091,0.316-0.154c0.105-0.063,0.209-0.135,0.311-0.216
		c0.102-0.081,0.197-0.165,0.287-0.251c0.215-0.201,0.426-0.43,0.633-0.687l0.1,1.56c-0.07,0.052-0.159,0.116-0.267,0.193
		s-0.227,0.159-0.357,0.245c-0.131,0.086-0.272,0.173-0.425,0.261s-0.306,0.166-0.46,0.234s-0.309,0.124-0.463,0.168
		s-0.302,0.066-0.442,0.066c-0.22,0-0.411-0.055-0.573-0.165c-0.162-0.11-0.295-0.25-0.398-0.419
		c-0.104-0.169-0.182-0.354-0.234-0.556c-0.052-0.201-0.078-0.391-0.078-0.569c0-0.126,0.017-0.268,0.052-0.423
		s0.077-0.312,0.128-0.471c0.051-0.158,0.108-0.312,0.171-0.461s0.122-0.284,0.177-0.402c0.055-0.119,0.103-0.215,0.144-0.29
		c0.041-0.075,0.067-0.119,0.079-0.13l-0.123-0.018c-0.066,0.042-0.179,0.15-0.337,0.324s-0.337,0.394-0.536,0.658
		s-0.405,0.562-0.618,0.892c-0.213,0.331-0.405,0.671-0.577,1.023c-0.086,0.174-0.156,0.326-0.211,0.455s-0.108,0.233-0.161,0.312
		s-0.11,0.139-0.173,0.179c-0.062,0.041-0.143,0.061-0.24,0.061c-0.129,0-0.23-0.035-0.305-0.104s-0.131-0.163-0.17-0.278
		c-0.039-0.116-0.064-0.247-0.076-0.394s-0.018-0.297-0.018-0.451c0-0.269,0.003-0.62,0.009-1.054
		C8.382,8.541,8.4,8.059,8.432,7.531S8.52,6.455,8.603,5.889c0.083-0.566,0.166-1.13,0.248-1.691
		c0.082-0.561,0.204-1.094,0.366-1.601c0.163-0.506,0.36-0.952,0.593-1.338c0.233-0.385,0.505-0.691,0.818-0.918S11.3,0,11.707,0
		c0.211,0,0.384,0.031,0.519,0.094s0.242,0.151,0.322,0.265c0.08,0.114,0.136,0.25,0.167,0.41s0.047,0.337,0.047,0.534
		c0,0.292-0.041,0.615-0.123,0.971c-0.082,0.355-0.19,0.724-0.325,1.106c-0.135,0.383-0.288,0.771-0.46,1.163
		s-0.348,0.773-0.527,1.143c-0.18,0.369-0.356,0.717-0.53,1.044s-0.327,0.616-0.46,0.864L10.453,7.677z M10.973,3.99
		c0.231-0.597,0.398-1.101,0.502-1.511c0.104-0.41,0.156-0.713,0.156-0.908c0-0.297-0.042-0.445-0.125-0.445
		c-0.102,0-0.252,0.166-0.451,0.498s-0.434,0.814-0.703,1.446c-0.067,0.215-0.128,0.438-0.185,0.668s-0.102,0.46-0.135,0.69
		C9.999,4.657,9.966,4.883,9.934,5.105C9.902,5.327,9.872,5.537,9.843,5.734C9.757,6.197,9.692,6.651,9.646,7.095
		c0.105-0.246,0.221-0.514,0.346-0.803c0.125-0.289,0.249-0.575,0.37-0.858c0.121-0.283,0.236-0.551,0.343-0.803
		C10.814,4.379,10.903,4.166,10.973,3.99z"/>
	<path d="M18.34,6.738c0.113,0.227,0.198,0.466,0.255,0.718s0.085,0.536,0.085,0.853c0,0.23-0.025,0.463-0.076,0.697
		s-0.124,0.461-0.22,0.68s-0.213,0.424-0.352,0.615s-0.297,0.357-0.475,0.498s-0.372,0.252-0.583,0.334s-0.436,0.123-0.674,0.123
		c-0.344,0-0.638-0.075-0.882-0.226s-0.444-0.347-0.601-0.589s-0.271-0.516-0.343-0.82s-0.108-0.613-0.108-0.926
		c0-0.516,0.064-0.96,0.193-1.333s0.313-0.697,0.554-0.973s0.534-0.492,0.882-0.65s0.738-0.237,1.172-0.237
		c0.371,0,0.719,0.058,1.043,0.173s0.628,0.27,0.911,0.463s0.547,0.437,0.791,0.729s0.472,0.572,0.683,0.838l-0.111,0.826
		c-0.105-0.141-0.248-0.293-0.428-0.457s-0.37-0.346-0.571-0.545s-0.399-0.368-0.595-0.507s-0.363-0.255-0.504-0.349L18.34,6.738z
		 M16.529,10.131c0.133,0,0.262-0.067,0.387-0.202s0.234-0.305,0.328-0.51s0.169-0.453,0.226-0.744s0.085-0.55,0.085-0.776
		c0-0.18-0.014-0.347-0.041-0.501s-0.068-0.288-0.123-0.401s-0.125-0.203-0.211-0.27s-0.189-0.1-0.311-0.1
		c-0.16,0-0.312,0.068-0.457,0.205s-0.271,0.312-0.381,0.524s-0.195,0.448-0.258,0.706S15.68,8.611,15.68,8.936
		c0,0.164,0.016,0.318,0.047,0.463s0.08,0.271,0.146,0.378s0.154,0.193,0.264,0.258S16.377,10.131,16.529,10.131z"/>
	<path d="M24.662,9.943c-0.375,0.219-0.71,0.41-1.003,0.574s-0.554,0.301-0.783,0.41s-0.432,0.191-0.61,0.246
		c-0.178,0.055-0.339,0.082-0.484,0.082c-0.295,0-0.556-0.09-0.781-0.27c-0.226-0.18-0.414-0.438-0.565-0.776
		c-0.152-0.338-0.265-0.747-0.341-1.228c-0.076-0.48-0.114-1.021-0.114-1.623c0-0.234,0.01-0.484,0.029-0.75
		c0.02-0.266,0.046-0.529,0.082-0.791c-0.118-0.018-0.209-0.034-0.274-0.049s-0.134-0.031-0.207-0.046s-0.165-0.031-0.277-0.049
		c-0.112-0.017-0.274-0.039-0.487-0.065c-0.094-0.013-0.167-0.038-0.218-0.075c-0.051-0.037-0.088-0.081-0.112-0.13
		c-0.024-0.05-0.038-0.102-0.042-0.157c-0.004-0.054-0.006-0.101-0.006-0.14c0-0.062,0.039-0.108,0.115-0.141
		c0.077-0.032,0.175-0.057,0.294-0.073c0.12-0.016,0.251-0.025,0.395-0.027c0.144-0.002,0.281-0.001,0.413,0.003
		s0.25,0.007,0.354,0.009s0.175-0.001,0.215-0.009c0.105-0.526,0.239-1.035,0.4-1.528c0.162-0.493,0.343-0.931,0.544-1.314
		c0.201-0.384,0.42-0.691,0.658-0.923s0.487-0.348,0.749-0.348c0.168,0,0.322,0.047,0.46,0.141s0.257,0.218,0.355,0.375
		c0.098,0.156,0.173,0.338,0.226,0.547s0.079,0.426,0.079,0.653c0,0.187-0.027,0.385-0.082,0.593
		c-0.055,0.208-0.129,0.42-0.223,0.636s-0.204,0.435-0.332,0.656c-0.127,0.222-0.261,0.441-0.401,0.659
		C22.722,5.003,22.781,5,22.863,5.008c0.082,0.008,0.177,0.014,0.284,0.017c0.107,0.003,0.224,0.006,0.349,0.009
		c0.125,0.003,0.246,0.007,0.363,0.011s0.227,0.008,0.328,0.012s0.186,0.008,0.252,0.012c0.078,0.004,0.135,0.048,0.17,0.13
		s0.053,0.187,0.053,0.313c0,0.146-0.039,0.265-0.117,0.356s-0.165,0.138-0.258,0.138h-2.252c-0.114,0.156-0.229,0.31-0.344,0.46
		s-0.223,0.286-0.321,0.407c-0.016,0.242-0.029,0.48-0.041,0.715c-0.004,0.102-0.008,0.206-0.012,0.313s-0.008,0.214-0.012,0.319
		s-0.007,0.207-0.009,0.305s-0.003,0.188-0.003,0.27c0,0.211,0.02,0.389,0.059,0.533c0.04,0.145,0.096,0.263,0.171,0.354
		c0.074,0.092,0.166,0.158,0.273,0.199s0.229,0.062,0.362,0.062c0.082,0,0.185-0.02,0.308-0.059
		c0.123-0.039,0.258-0.093,0.404-0.161c0.147-0.068,0.301-0.149,0.463-0.243s0.323-0.196,0.481-0.308s0.31-0.229,0.455-0.352
		s0.276-0.249,0.393-0.378V9.943z M22.787,2.523c0-0.043-0.003-0.09-0.009-0.143c-0.006-0.052-0.019-0.102-0.038-0.148
		c-0.02-0.047-0.05-0.086-0.091-0.117c-0.042-0.031-0.099-0.047-0.173-0.047c-0.102,0-0.205,0.089-0.309,0.268
		s-0.204,0.406-0.3,0.684c-0.096,0.277-0.186,0.583-0.271,0.916c-0.084,0.333-0.162,0.657-0.232,0.972
		c0.059,0.006,0.118,0.011,0.176,0.015s0.12,0.009,0.182,0.015c0.118-0.197,0.24-0.41,0.368-0.64s0.242-0.456,0.344-0.677
		c0.102-0.222,0.187-0.429,0.253-0.623C22.754,2.805,22.787,2.647,22.787,2.523z"/>
	<path d="M27.809,6.738c0.113,0.227,0.198,0.466,0.255,0.718s0.085,0.536,0.085,0.853c0,0.23-0.025,0.463-0.076,0.697
		s-0.124,0.461-0.22,0.68s-0.213,0.424-0.352,0.615s-0.297,0.357-0.475,0.498s-0.372,0.252-0.583,0.334s-0.436,0.123-0.674,0.123
		c-0.344,0-0.638-0.075-0.882-0.226s-0.444-0.347-0.601-0.589s-0.271-0.516-0.343-0.82s-0.108-0.613-0.108-0.926
		c0-0.516,0.064-0.96,0.193-1.333s0.313-0.697,0.554-0.973s0.534-0.492,0.882-0.65s0.738-0.237,1.172-0.237
		c0.371,0,0.719,0.058,1.043,0.173s0.628,0.27,0.911,0.463s0.547,0.437,0.791,0.729s0.472,0.572,0.683,0.838l-0.111,0.826
		c-0.105-0.141-0.248-0.293-0.428-0.457s-0.37-0.346-0.571-0.545s-0.399-0.368-0.595-0.507s-0.363-0.255-0.504-0.349L27.809,6.738z
		 M25.998,10.131c0.133,0,0.262-0.067,0.387-0.202s0.234-0.305,0.328-0.51s0.169-0.453,0.226-0.744s0.085-0.55,0.085-0.776
		c0-0.18-0.014-0.347-0.041-0.501s-0.068-0.288-0.123-0.401s-0.125-0.203-0.211-0.27s-0.189-0.1-0.311-0.1
		c-0.16,0-0.312,0.068-0.457,0.205S25.609,7.144,25.5,7.356s-0.195,0.448-0.258,0.706s-0.094,0.549-0.094,0.873
		c0,0.164,0.016,0.318,0.047,0.463s0.08,0.271,0.146,0.378s0.154,0.193,0.264,0.258S25.846,10.131,25.998,10.131z"/>
	<path d="M32.824,10.008c-0.141,0.129-0.315,0.267-0.524,0.413s-0.435,0.281-0.677,0.404s-0.489,0.226-0.741,0.308
		s-0.491,0.123-0.718,0.123c-0.203,0-0.374-0.028-0.513-0.085s-0.251-0.136-0.337-0.237s-0.147-0.226-0.185-0.372
		s-0.056-0.308-0.056-0.483c0-0.246,0.027-0.533,0.082-0.861c0.113-0.679,0.185-1.06,0.217-1.144
		c0.053-0.167,0.16-0.537,0.319-1.109c0.148-0.467,0.24-0.771,0.274-0.911c0.02-0.099,0.073-0.188,0.162-0.267
		c0.081-0.071,0.171-0.129,0.273-0.175c0.102-0.045,0.207-0.079,0.316-0.101c0.109-0.022,0.208-0.033,0.296-0.033
		c0.161,0,0.271,0.03,0.328,0.091s0.086,0.142,0.086,0.243c0,0.086-0.02,0.208-0.06,0.364s-0.086,0.336-0.137,0.537
		s-0.127,0.458-0.228,0.774c-0.101,0.316-0.169,0.585-0.207,0.807c-0.037,0.223-0.083,0.444-0.14,0.664
		c-0.056,0.22-0.084,0.419-0.084,0.599c0,0.175,0.02,0.315,0.059,0.418s0.119,0.155,0.24,0.155c0.141,0,0.297-0.049,0.469-0.146
		s0.346-0.216,0.521-0.354s0.348-0.282,0.516-0.431s0.316-0.275,0.445-0.381V10.008z M30.205,3.859c0-0.091,0.02-0.193,0.059-0.308
		s0.103-0.222,0.19-0.322s0.205-0.186,0.352-0.254s0.329-0.104,0.548-0.104c0.137,0,0.266,0.016,0.387,0.047s0.227,0.08,0.316,0.145
		s0.161,0.151,0.214,0.257s0.079,0.232,0.079,0.378c0,0.134-0.021,0.264-0.064,0.39c-0.043,0.126-0.111,0.239-0.205,0.337
		s-0.212,0.178-0.354,0.239c-0.143,0.062-0.313,0.092-0.513,0.092c-0.344,0-0.598-0.082-0.762-0.246
		C30.287,4.349,30.205,4.131,30.205,3.859z"/>
	<path d="M32.062,11.477c0-0.02,0.005-0.138,0.015-0.356c0.01-0.218,0.031-0.508,0.063-0.871s0.07-0.781,0.113-1.257
		c0.042-0.475,0.103-0.977,0.181-1.503s0.169-1.067,0.275-1.622c0.105-0.554,0.231-1.094,0.377-1.619
		c0.146-0.525,0.312-1.02,0.5-1.484s0.398-0.871,0.631-1.219s0.494-0.623,0.781-0.826c0.288-0.202,0.603-0.303,0.946-0.303
		c0.132,0,0.271,0.023,0.418,0.068c0.146,0.046,0.279,0.12,0.4,0.223c0.121,0.103,0.221,0.239,0.301,0.408
		c0.08,0.169,0.12,0.377,0.12,0.625c0,0.23-0.037,0.494-0.112,0.792c-0.074,0.298-0.179,0.617-0.313,0.957
		c-0.135,0.339-0.293,0.692-0.476,1.059c-0.183,0.366-0.383,0.732-0.6,1.096c-0.217,0.365-0.445,0.724-0.685,1.076
		c-0.239,0.353-0.483,0.684-0.732,0.991l-0.012,0.094c0.083-0.034,0.144-0.057,0.185-0.066c0.042-0.011,0.084-0.016,0.13-0.016
		c0.054,0,0.098,0.004,0.132,0.013c0.033,0.009,0.064,0.018,0.091,0.028c0.027,0.01,0.056,0.02,0.085,0.028
		c0.029,0.008,0.065,0.013,0.107,0.013c0.387,0,0.729-0.046,1.025-0.137c0.297-0.092,0.547-0.194,0.75-0.307
		c0.238-0.129,0.445-0.279,0.621-0.451L37.25,8.337c-0.258,0.142-0.527,0.253-0.809,0.332c-0.281,0.079-0.541,0.138-0.779,0.177
		c-0.277,0.043-0.557,0.071-0.837,0.083c0.151,0.257,0.287,0.524,0.408,0.801c0.105,0.238,0.2,0.504,0.286,0.798
		c0.086,0.294,0.129,0.592,0.129,0.892c0,0.035-0.005,0.109-0.016,0.222c-0.011,0.113-0.028,0.251-0.053,0.415
		c-0.024,0.164-0.059,0.345-0.104,0.544c-0.045,0.199-0.104,0.399-0.175,0.603c-0.072,0.203-0.159,0.398-0.261,0.587
		c-0.103,0.189-0.222,0.356-0.359,0.503c-0.137,0.146-0.294,0.264-0.473,0.354c-0.178,0.089-0.379,0.134-0.604,0.134
		c-0.213,0-0.4-0.049-0.559-0.146c-0.159-0.098-0.295-0.229-0.407-0.395c-0.113-0.166-0.207-0.358-0.282-0.578
		c-0.076-0.22-0.135-0.453-0.178-0.698c-0.042-0.246-0.073-0.496-0.09-0.75C32.071,11.96,32.062,11.714,32.062,11.477z
		 M33.612,8.397c-0.016,0-0.034,0.044-0.053,0.134c-0.02,0.089-0.035,0.201-0.046,0.336c-0.011,0.135-0.026,0.327-0.046,0.576
		c-0.02,0.25-0.037,0.454-0.049,0.613c-0.013,0.16-0.023,0.311-0.031,0.453s-0.012,0.255-0.012,0.337
		c0,0.574,0.011,1.031,0.032,1.371c0.022,0.34,0.049,0.598,0.083,0.773c0.034,0.176,0.071,0.29,0.112,0.343
		c0.041,0.053,0.083,0.079,0.126,0.079c0.134,0,0.241-0.061,0.321-0.182s0.142-0.274,0.183-0.46
		c0.041-0.186,0.069-0.389,0.083-0.609s0.021-0.433,0.021-0.636c0-0.137-0.004-0.305-0.012-0.504s-0.02-0.415-0.036-0.646
		c-0.016-0.23-0.048-0.492-0.098-0.783c-0.049-0.291-0.119-0.51-0.208-0.657s-0.161-0.273-0.216-0.38
		C33.711,8.45,33.66,8.397,33.612,8.397z M35.095,2.272c-0.23,0.519-0.419,1.012-0.567,1.48c-0.136,0.429-0.237,0.809-0.305,1.14
		s-0.116,0.623-0.145,0.875c-0.029,0.251-0.057,0.484-0.084,0.699c0.25-0.448,0.509-0.885,0.776-1.31s0.501-0.824,0.701-1.196
		c0.201-0.373,0.372-0.732,0.514-1.079s0.213-0.595,0.213-0.743c0-0.207-0.029-0.358-0.087-0.454
		c-0.058-0.095-0.155-0.143-0.29-0.143c-0.213,0-0.357,0.047-0.431,0.14C35.333,1.759,35.235,1.956,35.095,2.272z"/>
	<path d="M39.123,11.355l0.129-0.708c-0.211,0.186-0.431,0.335-0.659,0.45c-0.229,0.114-0.45,0.171-0.665,0.171
		c-0.188,0-0.37-0.038-0.548-0.114s-0.335-0.186-0.472-0.328s-0.246-0.316-0.328-0.521s-0.123-0.437-0.123-0.694
		c0-0.34,0.023-0.651,0.07-0.935s0.104-0.633,0.173-1.049c0.068-0.416,0.149-0.744,0.243-0.984s0.201-0.483,0.322-0.729
		c0.09-0.176,0.219-0.31,0.387-0.401s0.332-0.138,0.492-0.138c0.137,0,0.254,0.034,0.352,0.103s0.146,0.175,0.146,0.32
		c0,0.043-0.005,0.09-0.014,0.141c-0.01,0.051-0.026,0.105-0.049,0.164c-0.069,0.18-0.127,0.394-0.174,0.641
		s-0.111,0.578-0.19,0.991s-0.142,0.74-0.188,0.982c-0.046,0.242-0.069,0.458-0.069,0.647c0,0.099,0.007,0.194,0.021,0.287
		s0.038,0.176,0.073,0.249c0.035,0.073,0.082,0.132,0.141,0.177c0.059,0.046,0.133,0.068,0.223,0.068
		c0.145,0,0.275-0.063,0.393-0.189c0.117-0.125,0.219-0.277,0.305-0.454c0.086-0.177,0.155-0.36,0.208-0.549
		s0.087-0.346,0.103-0.472l0.47-2.191c0.027-0.129,0.082-0.246,0.164-0.352c0.078-0.102,0.17-0.188,0.276-0.261
		s0.215-0.126,0.329-0.161s0.221-0.053,0.323-0.053c0.122,0,0.223,0.026,0.305,0.079s0.124,0.136,0.124,0.25
		c0,0.035-0.006,0.076-0.018,0.123c-0.019,0.104-0.043,0.244-0.074,0.419c-0.03,0.175-0.065,0.375-0.104,0.598
		c-0.039,0.223-0.093,0.537-0.164,0.939c-0.07,0.403-0.127,0.728-0.17,0.973c-0.099,0.58-0.2,1.203-0.303,1.869
		c0.119-0.066,0.247-0.148,0.384-0.246s0.29-0.228,0.458-0.392c0.167-0.164,0.355-0.37,0.562-0.618
		c0.207-0.248,0.439-0.557,0.697-0.928l0.281,1.304c-0.07,0.121-0.161,0.243-0.27,0.367c-0.117,0.132-0.243,0.26-0.375,0.384
		c-0.196,0.179-0.336,0.299-0.422,0.361c-0.028,0.02-0.17,0.131-0.428,0.336c-0.079,0.066-0.337,0.246-0.776,0.539
		c-0.107,0.07-0.18,0.198-0.22,0.383c-0.04,0.186-0.085,0.53-0.137,1.034c-0.022,0.144-0.036,0.254-0.042,0.332
		c-0.024,0.187-0.046,0.364-0.067,0.533c-0.021,0.169-0.06,0.362-0.114,0.579c-0.054,0.217-0.119,0.417-0.193,0.598
		s-0.171,0.362-0.292,0.542c-0.121,0.18-0.254,0.333-0.4,0.46s-0.323,0.229-0.529,0.308s-0.433,0.117-0.678,0.117
		c-0.199,0-0.383-0.022-0.553-0.067s-0.325-0.114-0.465-0.208c-0.141-0.094-0.255-0.222-0.345-0.383
		c-0.089-0.162-0.142-0.353-0.158-0.571c-0.031-0.414,0.082-0.851,0.34-1.311c0.145-0.258,0.246-0.437,0.305-0.536
		c0.059-0.1,0.15-0.243,0.275-0.43c0.125-0.184,0.256-0.35,0.393-0.498c0.273-0.309,0.499-0.556,0.677-0.744
		C38.665,11.771,38.877,11.57,39.123,11.355z M39.144,12.768c-0.274,0.195-0.544,0.508-0.81,0.938
		c-0.266,0.429-0.478,0.867-0.634,1.312c-0.129,0.375-0.065,0.562,0.193,0.562c0.094,0,0.178-0.012,0.252-0.035
		s0.143-0.065,0.205-0.126s0.117-0.127,0.164-0.199s0.097-0.174,0.149-0.305s0.1-0.26,0.141-0.387s0.093-0.296,0.155-0.507
		c0.035-0.113,0.061-0.239,0.078-0.378s0.038-0.306,0.061-0.501C39.122,12.947,39.137,12.822,39.144,12.768z"/>
</g>
</svg>
